<svg width="22" height="21" viewBox="0 0 22 21" fill="none" xmlns="http://www.w3.org/2000/svg">
<path d="M19.6443 17.5819L3.04202 0.979638C2.50098 0.438599 1.62378 0.438599 1.08274 0.979638L0.979621 1.08276C0.438583 1.6238 0.438582 2.50099 0.979621 3.04203L17.5819 19.6443C18.1229 20.1853 19.0001 20.1853 19.5412 19.6443L19.6443 19.5412C20.1853 19.0002 20.1853 18.123 19.6443 17.5819Z" fill="white"/>
<path d="M18.5819 0.979609L1.97964 17.5819C1.4386 18.1229 1.4386 19.0001 1.97964 19.5412L2.08276 19.6443C2.6238 20.1853 3.50099 20.1853 4.04203 19.6443L20.6443 3.042C21.1853 2.50096 21.1853 1.62377 20.6443 1.08273L20.5412 0.979608C20.0002 0.438569 19.123 0.438569 18.5819 0.979609Z" fill="white"/>
</svg>
